<svg xmlns="http://www.w3.org/2000/svg" viewBox="0 0 384 56" aria-hidden="true" shape-rendering="crispEdges">
<g transform="translate(0 0)"><rect x="10" y="53" width="30" height="1" fill="#e3e7ed"/><rect x="14" y="52" width="22" height="1" fill="#e3e7ed"/><rect x="19" y="35" width="4" height="4" fill="#202b3d"/><rect x="20" y="36" width="4" height="4" fill="#202b3d"/><rect x="21" y="37" width="4" height="4" fill="#202b3d"/><rect x="22" y="38" width="4" height="4" fill="#202b3d"/><rect x="22" y="39" width="4" height="4" fill="#202b3d"/><rect x="23" y="40" width="4" height="4" fill="#202b3d"/><rect x="24" y="41" width="4" height="4" fill="#202b3d"/><rect x="24" y="41" width="4" height="4" fill="#202b3d"/><rect x="25" y="42" width="4" height="4" fill="#202b3d"/><rect x="26" y="43" width="4" height="4" fill="#202b3d"/><rect x="27" y="44" width="4" height="4" fill="#202b3d"/><rect x="28" y="45" width="4" height="4" fill="#202b3d"/><rect x="29" y="46" width="4" height="4" fill="#202b3d"/><rect x="29" y="49" width="7" height="3" fill="#202b3d"/><rect x="23" y="35" width="4" height="4" fill="#354762"/><rect x="22" y="36" width="4" height="4" fill="#354762"/><rect x="21" y="37" width="4" height="4" fill="#354762"/><rect x="20" y="38" width="4" height="4" fill="#354762"/><rect x="20" y="39" width="4" height="4" fill="#354762"/><rect x="19" y="40" width="4" height="4" fill="#354762"/><rect x="18" y="41" width="4" height="4" fill="#354762"/><rect x="17" y="42" width="4" height="4" fill="#354762"/><rect x="17" y="42" width="4" height="4" fill="#354762"/><rect x="16" y="43" width="4" height="4" fill="#354762"/><rect x="15" y="44" width="4" height="4" fill="#354762"/><rect x="14" y="44" width="4" height="4" fill="#354762"/><rect x="13" y="45" width="4" height="4" fill="#354762"/><rect x="12" y="46" width="4" height="4" fill="#354762"/><rect x="12" y="49" width="7" height="3" fill="#202b3d"/><rect x="14" y="49" width="4" height="1" fill="#4c6180"/><g transform="translate(0 0)"><rect x="17" y="5" width="11" height="2" fill="#202b3d"/><rect x="15" y="7" width="15" height="6" fill="#202b3d"/><rect x="16" y="11" width="14" height="7" fill="#e7b998"/><rect x="29" y="13" width="3" height="3" fill="#e7b998"/><rect x="18" y="18" width="10" height="2" fill="#e7b998"/><rect x="20" y="20" width="5" height="3" fill="#cf9778"/><rect x="15" y="11" width="5" height="5" fill="#202b3d"/><rect x="19" y="14" width="3" height="3" fill="#cf9778"/><rect x="28" y="11" width="2" height="2" fill="#202b3d"/><rect x="27" y="17" width="3" height="1" fill="#cf9778"/><rect x="18" y="7" width="8" height="1" fill="#4c6180"/><rect x="17" y="22" width="11" height="3" fill="#354762"/><rect x="15" y="25" width="13" height="10" fill="#354762"/><rect x="17" y="35" width="11" height="2" fill="#202b3d"/><rect x="24" y="22" width="4" height="4" fill="#f7f5ee"/><rect x="25" y="26" width="2" height="5" fill="#202b3d"/><rect x="16" y="25" width="3" height="9" fill="#4c6180"/><rect x="27" y="30" width="1" height="2" fill="#dfbc80"/><rect x="22" y="25" width="4" height="4" fill="#4c6180"/><rect x="22" y="26" width="4" height="4" fill="#4c6180"/><rect x="23" y="27" width="4" height="4" fill="#4c6180"/><rect x="23" y="28" width="4" height="4" fill="#4c6180"/><rect x="24" y="29" width="4" height="4" fill="#4c6180"/><rect x="24" y="30" width="4" height="4" fill="#4c6180"/><rect x="24" y="30" width="4" height="4" fill="#354762"/><rect x="25" y="31" width="4" height="4" fill="#354762"/><rect x="26" y="32" width="4" height="4" fill="#354762"/><rect x="27" y="32" width="4" height="4" fill="#354762"/><rect x="28" y="33" width="4" height="4" fill="#354762"/><rect x="29" y="34" width="3" height="3" fill="#e7b998"/><rect x="29" y="36" width="7" height="2" fill="#694a35"/><rect x="28" y="37" width="2" height="3" fill="#694a35"/><rect x="35" y="37" width="2" height="3" fill="#694a35"/><rect x="25" y="39" width="15" height="10" fill="#694a35"/><rect x="26" y="40" width="13" height="8" fill="#986b45"/><rect x="26" y="40" width="13" height="2" fill="#b1875b"/><rect x="32" y="43" width="2" height="2" fill="#dfbc80"/><rect x="26" y="47" width="13" height="1" fill="#805739"/></g></g>
<g transform="translate(48 0)"><rect x="10" y="53" width="30" height="1" fill="#e3e7ed"/><rect x="14" y="52" width="22" height="1" fill="#e3e7ed"/><rect x="19" y="35" width="4" height="4" fill="#202b3d"/><rect x="20" y="36" width="4" height="4" fill="#202b3d"/><rect x="20" y="37" width="4" height="4" fill="#202b3d"/><rect x="20" y="38" width="4" height="4" fill="#202b3d"/><rect x="21" y="39" width="4" height="4" fill="#202b3d"/><rect x="22" y="40" width="4" height="4" fill="#202b3d"/><rect x="22" y="41" width="4" height="4" fill="#202b3d"/><rect x="22" y="41" width="4" height="4" fill="#202b3d"/><rect x="23" y="42" width="4" height="4" fill="#202b3d"/><rect x="23" y="43" width="4" height="4" fill="#202b3d"/><rect x="24" y="44" width="4" height="4" fill="#202b3d"/><rect x="24" y="45" width="4" height="4" fill="#202b3d"/><rect x="25" y="46" width="4" height="4" fill="#202b3d"/><rect x="25" y="49" width="7" height="3" fill="#202b3d"/><rect x="23" y="35" width="4" height="4" fill="#354762"/><rect x="23" y="36" width="4" height="4" fill="#354762"/><rect x="22" y="37" width="4" height="4" fill="#354762"/><rect x="22" y="38" width="4" height="4" fill="#354762"/><rect x="21" y="39" width="4" height="4" fill="#354762"/><rect x="21" y="40" width="4" height="4" fill="#354762"/><rect x="20" y="41" width="4" height="4" fill="#354762"/><rect x="20" y="42" width="4" height="4" fill="#354762"/><rect x="20" y="42" width="4" height="4" fill="#354762"/><rect x="19" y="43" width="4" height="4" fill="#354762"/><rect x="18" y="44" width="4" height="4" fill="#354762"/><rect x="18" y="45" width="4" height="4" fill="#354762"/><rect x="17" y="46" width="4" height="4" fill="#354762"/><rect x="17" y="49" width="7" height="3" fill="#202b3d"/><rect x="19" y="49" width="4" height="1" fill="#4c6180"/><g transform="translate(0 1)"><rect x="17" y="5" width="11" height="2" fill="#202b3d"/><rect x="15" y="7" width="15" height="6" fill="#202b3d"/><rect x="16" y="11" width="14" height="7" fill="#e7b998"/><rect x="29" y="13" width="3" height="3" fill="#e7b998"/><rect x="18" y="18" width="10" height="2" fill="#e7b998"/><rect x="20" y="20" width="5" height="3" fill="#cf9778"/><rect x="15" y="11" width="5" height="5" fill="#202b3d"/><rect x="19" y="14" width="3" height="3" fill="#cf9778"/><rect x="28" y="11" width="2" height="2" fill="#202b3d"/><rect x="27" y="17" width="3" height="1" fill="#cf9778"/><rect x="18" y="7" width="8" height="1" fill="#4c6180"/><rect x="17" y="22" width="11" height="3" fill="#354762"/><rect x="15" y="25" width="13" height="10" fill="#354762"/><rect x="17" y="35" width="11" height="2" fill="#202b3d"/><rect x="24" y="22" width="4" height="4" fill="#f7f5ee"/><rect x="25" y="26" width="2" height="5" fill="#202b3d"/><rect x="16" y="25" width="3" height="9" fill="#4c6180"/><rect x="27" y="30" width="1" height="2" fill="#dfbc80"/><rect x="22" y="25" width="4" height="4" fill="#4c6180"/><rect x="23" y="26" width="4" height="4" fill="#4c6180"/><rect x="23" y="27" width="4" height="4" fill="#4c6180"/><rect x="24" y="28" width="4" height="4" fill="#4c6180"/><rect x="24" y="29" width="4" height="4" fill="#4c6180"/><rect x="25" y="30" width="4" height="4" fill="#4c6180"/><rect x="25" y="30" width="4" height="4" fill="#354762"/><rect x="26" y="31" width="4" height="4" fill="#354762"/><rect x="27" y="32" width="4" height="4" fill="#354762"/><rect x="28" y="32" width="4" height="4" fill="#354762"/><rect x="29" y="33" width="4" height="4" fill="#354762"/><rect x="30" y="34" width="3" height="3" fill="#e7b998"/><rect x="30" y="36" width="7" height="2" fill="#694a35"/><rect x="29" y="37" width="2" height="3" fill="#694a35"/><rect x="36" y="37" width="2" height="3" fill="#694a35"/><rect x="26" y="39" width="15" height="10" fill="#694a35"/><rect x="27" y="40" width="13" height="8" fill="#986b45"/><rect x="27" y="40" width="13" height="2" fill="#b1875b"/><rect x="33" y="43" width="2" height="2" fill="#dfbc80"/><rect x="27" y="47" width="13" height="1" fill="#805739"/></g></g>
<g transform="translate(96 0)"><rect x="10" y="53" width="30" height="1" fill="#e3e7ed"/><rect x="14" y="52" width="22" height="1" fill="#e3e7ed"/><rect x="19" y="35" width="4" height="4" fill="#202b3d"/><rect x="19" y="36" width="4" height="4" fill="#202b3d"/><rect x="19" y="37" width="4" height="4" fill="#202b3d"/><rect x="19" y="38" width="4" height="4" fill="#202b3d"/><rect x="19" y="39" width="4" height="4" fill="#202b3d"/><rect x="19" y="40" width="4" height="4" fill="#202b3d"/><rect x="19" y="41" width="4" height="4" fill="#202b3d"/><rect x="19" y="41" width="4" height="4" fill="#202b3d"/><rect x="19" y="42" width="4" height="4" fill="#202b3d"/><rect x="18" y="43" width="4" height="4" fill="#202b3d"/><rect x="18" y="44" width="4" height="4" fill="#202b3d"/><rect x="18" y="47" width="7" height="3" fill="#202b3d"/><rect x="23" y="35" width="4" height="4" fill="#354762"/><rect x="23" y="36" width="4" height="4" fill="#354762"/><rect x="23" y="37" width="4" height="4" fill="#354762"/><rect x="23" y="38" width="4" height="4" fill="#354762"/><rect x="23" y="39" width="4" height="4" fill="#354762"/><rect x="23" y="40" width="4" height="4" fill="#354762"/><rect x="23" y="41" width="4" height="4" fill="#354762"/><rect x="23" y="42" width="4" height="4" fill="#354762"/><rect x="23" y="42" width="4" height="4" fill="#354762"/><rect x="24" y="43" width="4" height="4" fill="#354762"/><rect x="24" y="44" width="4" height="4" fill="#354762"/><rect x="24" y="47" width="7" height="3" fill="#202b3d"/><rect x="26" y="47" width="4" height="1" fill="#4c6180"/><g transform="translate(0 1)"><rect x="17" y="5" width="11" height="2" fill="#202b3d"/><rect x="15" y="7" width="15" height="6" fill="#202b3d"/><rect x="16" y="11" width="14" height="7" fill="#e7b998"/><rect x="29" y="13" width="3" height="3" fill="#e7b998"/><rect x="18" y="18" width="10" height="2" fill="#e7b998"/><rect x="20" y="20" width="5" height="3" fill="#cf9778"/><rect x="15" y="11" width="5" height="5" fill="#202b3d"/><rect x="19" y="14" width="3" height="3" fill="#cf9778"/><rect x="28" y="11" width="2" height="2" fill="#202b3d"/><rect x="27" y="17" width="3" height="1" fill="#cf9778"/><rect x="18" y="7" width="8" height="1" fill="#4c6180"/><rect x="17" y="22" width="11" height="3" fill="#354762"/><rect x="15" y="25" width="13" height="10" fill="#354762"/><rect x="17" y="35" width="11" height="2" fill="#202b3d"/><rect x="24" y="22" width="4" height="4" fill="#f7f5ee"/><rect x="25" y="26" width="2" height="5" fill="#202b3d"/><rect x="16" y="25" width="3" height="9" fill="#4c6180"/><rect x="27" y="30" width="1" height="2" fill="#dfbc80"/><rect x="22" y="25" width="4" height="4" fill="#4c6180"/><rect x="23" y="26" width="4" height="4" fill="#4c6180"/><rect x="24" y="27" width="4" height="4" fill="#4c6180"/><rect x="24" y="28" width="4" height="4" fill="#4c6180"/><rect x="25" y="29" width="4" height="4" fill="#4c6180"/><rect x="26" y="30" width="4" height="4" fill="#4c6180"/><rect x="26" y="30" width="4" height="4" fill="#354762"/><rect x="27" y="31" width="4" height="4" fill="#354762"/><rect x="28" y="32" width="4" height="4" fill="#354762"/><rect x="29" y="32" width="4" height="4" fill="#354762"/><rect x="30" y="33" width="4" height="4" fill="#354762"/><rect x="31" y="34" width="3" height="3" fill="#e7b998"/><rect x="31" y="36" width="7" height="2" fill="#694a35"/><rect x="30" y="37" width="2" height="3" fill="#694a35"/><rect x="37" y="37" width="2" height="3" fill="#694a35"/><rect x="27" y="39" width="15" height="10" fill="#694a35"/><rect x="28" y="40" width="13" height="8" fill="#986b45"/><rect x="28" y="40" width="13" height="2" fill="#b1875b"/><rect x="34" y="43" width="2" height="2" fill="#dfbc80"/><rect x="28" y="47" width="13" height="1" fill="#805739"/></g></g>
<g transform="translate(144 0)"><rect x="10" y="53" width="30" height="1" fill="#e3e7ed"/><rect x="14" y="52" width="22" height="1" fill="#e3e7ed"/><rect x="19" y="35" width="4" height="4" fill="#202b3d"/><rect x="19" y="36" width="4" height="4" fill="#202b3d"/><rect x="18" y="37" width="4" height="4" fill="#202b3d"/><rect x="18" y="38" width="4" height="4" fill="#202b3d"/><rect x="18" y="39" width="4" height="4" fill="#202b3d"/><rect x="17" y="40" width="4" height="4" fill="#202b3d"/><rect x="17" y="41" width="4" height="4" fill="#202b3d"/><rect x="17" y="41" width="4" height="4" fill="#202b3d"/><rect x="16" y="42" width="4" height="4" fill="#202b3d"/><rect x="16" y="43" width="4" height="4" fill="#202b3d"/><rect x="15" y="44" width="4" height="4" fill="#202b3d"/><rect x="14" y="45" width="4" height="4" fill="#202b3d"/><rect x="14" y="48" width="7" height="3" fill="#202b3d"/><rect x="23" y="35" width="4" height="4" fill="#354762"/><rect x="23" y="36" width="4" height="4" fill="#354762"/><rect x="24" y="37" width="4" height="4" fill="#354762"/><rect x="24" y="38" width="4" height="4" fill="#354762"/><rect x="24" y="39" width="4" height="4" fill="#354762"/><rect x="24" y="40" width="4" height="4" fill="#354762"/><rect x="25" y="41" width="4" height="4" fill="#354762"/><rect x="25" y="42" width="4" height="4" fill="#354762"/><rect x="25" y="42" width="4" height="4" fill="#354762"/><rect x="26" y="43" width="4" height="4" fill="#354762"/><rect x="27" y="44" width="4" height="4" fill="#354762"/><rect x="28" y="45" width="4" height="4" fill="#354762"/><rect x="28" y="48" width="7" height="3" fill="#202b3d"/><rect x="30" y="48" width="4" height="1" fill="#4c6180"/><g transform="translate(0 0)"><rect x="17" y="5" width="11" height="2" fill="#202b3d"/><rect x="15" y="7" width="15" height="6" fill="#202b3d"/><rect x="16" y="11" width="14" height="7" fill="#e7b998"/><rect x="29" y="13" width="3" height="3" fill="#e7b998"/><rect x="18" y="18" width="10" height="2" fill="#e7b998"/><rect x="20" y="20" width="5" height="3" fill="#cf9778"/><rect x="15" y="11" width="5" height="5" fill="#202b3d"/><rect x="19" y="14" width="3" height="3" fill="#cf9778"/><rect x="28" y="11" width="2" height="2" fill="#202b3d"/><rect x="27" y="17" width="3" height="1" fill="#cf9778"/><rect x="18" y="7" width="8" height="1" fill="#4c6180"/><rect x="17" y="22" width="11" height="3" fill="#354762"/><rect x="15" y="25" width="13" height="10" fill="#354762"/><rect x="17" y="35" width="11" height="2" fill="#202b3d"/><rect x="24" y="22" width="4" height="4" fill="#f7f5ee"/><rect x="25" y="26" width="2" height="5" fill="#202b3d"/><rect x="16" y="25" width="3" height="9" fill="#4c6180"/><rect x="27" y="30" width="1" height="2" fill="#dfbc80"/><rect x="22" y="25" width="4" height="4" fill="#4c6180"/><rect x="23" y="26" width="4" height="4" fill="#4c6180"/><rect x="24" y="27" width="4" height="4" fill="#4c6180"/><rect x="24" y="28" width="4" height="4" fill="#4c6180"/><rect x="25" y="29" width="4" height="4" fill="#4c6180"/><rect x="26" y="30" width="4" height="4" fill="#4c6180"/><rect x="26" y="30" width="4" height="4" fill="#354762"/><rect x="27" y="31" width="4" height="4" fill="#354762"/><rect x="28" y="32" width="4" height="4" fill="#354762"/><rect x="29" y="32" width="4" height="4" fill="#354762"/><rect x="30" y="33" width="4" height="4" fill="#354762"/><rect x="31" y="34" width="3" height="3" fill="#e7b998"/><rect x="31" y="36" width="7" height="2" fill="#694a35"/><rect x="30" y="37" width="2" height="3" fill="#694a35"/><rect x="37" y="37" width="2" height="3" fill="#694a35"/><rect x="27" y="39" width="15" height="10" fill="#694a35"/><rect x="28" y="40" width="13" height="8" fill="#986b45"/><rect x="28" y="40" width="13" height="2" fill="#b1875b"/><rect x="34" y="43" width="2" height="2" fill="#dfbc80"/><rect x="28" y="47" width="13" height="1" fill="#805739"/></g></g>
<g transform="translate(192 0)"><rect x="10" y="53" width="30" height="1" fill="#e3e7ed"/><rect x="14" y="52" width="22" height="1" fill="#e3e7ed"/><rect x="19" y="35" width="4" height="4" fill="#202b3d"/><rect x="18" y="36" width="4" height="4" fill="#202b3d"/><rect x="18" y="37" width="4" height="4" fill="#202b3d"/><rect x="18" y="38" width="4" height="4" fill="#202b3d"/><rect x="17" y="39" width="4" height="4" fill="#202b3d"/><rect x="16" y="40" width="4" height="4" fill="#202b3d"/><rect x="16" y="41" width="4" height="4" fill="#202b3d"/><rect x="16" y="41" width="4" height="4" fill="#202b3d"/><rect x="15" y="42" width="4" height="4" fill="#202b3d"/><rect x="14" y="43" width="4" height="4" fill="#202b3d"/><rect x="14" y="44" width="4" height="4" fill="#202b3d"/><rect x="13" y="45" width="4" height="4" fill="#202b3d"/><rect x="12" y="46" width="4" height="4" fill="#202b3d"/><rect x="12" y="49" width="7" height="3" fill="#202b3d"/><rect x="23" y="35" width="4" height="4" fill="#354762"/><rect x="23" y="36" width="4" height="4" fill="#354762"/><rect x="24" y="37" width="4" height="4" fill="#354762"/><rect x="24" y="38" width="4" height="4" fill="#354762"/><rect x="25" y="39" width="4" height="4" fill="#354762"/><rect x="25" y="40" width="4" height="4" fill="#354762"/><rect x="26" y="41" width="4" height="4" fill="#354762"/><rect x="26" y="42" width="4" height="4" fill="#354762"/><rect x="26" y="42" width="4" height="4" fill="#354762"/><rect x="27" y="43" width="4" height="4" fill="#354762"/><rect x="28" y="44" width="4" height="4" fill="#354762"/><rect x="28" y="45" width="4" height="4" fill="#354762"/><rect x="29" y="46" width="4" height="4" fill="#354762"/><rect x="29" y="49" width="7" height="3" fill="#202b3d"/><rect x="31" y="49" width="4" height="1" fill="#4c6180"/><g transform="translate(0 0)"><rect x="17" y="5" width="11" height="2" fill="#202b3d"/><rect x="15" y="7" width="15" height="6" fill="#202b3d"/><rect x="16" y="11" width="14" height="7" fill="#e7b998"/><rect x="29" y="13" width="3" height="3" fill="#e7b998"/><rect x="18" y="18" width="10" height="2" fill="#e7b998"/><rect x="20" y="20" width="5" height="3" fill="#cf9778"/><rect x="15" y="11" width="5" height="5" fill="#202b3d"/><rect x="19" y="14" width="3" height="3" fill="#cf9778"/><rect x="28" y="11" width="2" height="2" fill="#202b3d"/><rect x="27" y="17" width="3" height="1" fill="#cf9778"/><rect x="18" y="7" width="8" height="1" fill="#4c6180"/><rect x="17" y="22" width="11" height="3" fill="#354762"/><rect x="15" y="25" width="13" height="10" fill="#354762"/><rect x="17" y="35" width="11" height="2" fill="#202b3d"/><rect x="24" y="22" width="4" height="4" fill="#f7f5ee"/><rect x="25" y="26" width="2" height="5" fill="#202b3d"/><rect x="16" y="25" width="3" height="9" fill="#4c6180"/><rect x="27" y="30" width="1" height="2" fill="#dfbc80"/><rect x="22" y="25" width="4" height="4" fill="#4c6180"/><rect x="23" y="26" width="4" height="4" fill="#4c6180"/><rect x="23" y="27" width="4" height="4" fill="#4c6180"/><rect x="24" y="28" width="4" height="4" fill="#4c6180"/><rect x="24" y="29" width="4" height="4" fill="#4c6180"/><rect x="25" y="30" width="4" height="4" fill="#4c6180"/><rect x="25" y="30" width="4" height="4" fill="#354762"/><rect x="26" y="31" width="4" height="4" fill="#354762"/><rect x="27" y="32" width="4" height="4" fill="#354762"/><rect x="28" y="32" width="4" height="4" fill="#354762"/><rect x="29" y="33" width="4" height="4" fill="#354762"/><rect x="30" y="34" width="3" height="3" fill="#e7b998"/><rect x="30" y="36" width="7" height="2" fill="#694a35"/><rect x="29" y="37" width="2" height="3" fill="#694a35"/><rect x="36" y="37" width="2" height="3" fill="#694a35"/><rect x="26" y="39" width="15" height="10" fill="#694a35"/><rect x="27" y="40" width="13" height="8" fill="#986b45"/><rect x="27" y="40" width="13" height="2" fill="#b1875b"/><rect x="33" y="43" width="2" height="2" fill="#dfbc80"/><rect x="27" y="47" width="13" height="1" fill="#805739"/></g></g>
<g transform="translate(240 0)"><rect x="10" y="53" width="30" height="1" fill="#e3e7ed"/><rect x="14" y="52" width="22" height="1" fill="#e3e7ed"/><rect x="19" y="35" width="4" height="4" fill="#202b3d"/><rect x="19" y="36" width="4" height="4" fill="#202b3d"/><rect x="19" y="37" width="4" height="4" fill="#202b3d"/><rect x="18" y="38" width="4" height="4" fill="#202b3d"/><rect x="18" y="39" width="4" height="4" fill="#202b3d"/><rect x="18" y="40" width="4" height="4" fill="#202b3d"/><rect x="18" y="41" width="4" height="4" fill="#202b3d"/><rect x="18" y="41" width="4" height="4" fill="#202b3d"/><rect x="18" y="42" width="4" height="4" fill="#202b3d"/><rect x="18" y="43" width="4" height="4" fill="#202b3d"/><rect x="17" y="44" width="4" height="4" fill="#202b3d"/><rect x="17" y="45" width="4" height="4" fill="#202b3d"/><rect x="17" y="46" width="4" height="4" fill="#202b3d"/><rect x="17" y="49" width="7" height="3" fill="#202b3d"/><rect x="23" y="35" width="4" height="4" fill="#354762"/><rect x="23" y="36" width="4" height="4" fill="#354762"/><rect x="23" y="37" width="4" height="4" fill="#354762"/><rect x="23" y="38" width="4" height="4" fill="#354762"/><rect x="24" y="39" width="4" height="4" fill="#354762"/><rect x="24" y="40" width="4" height="4" fill="#354762"/><rect x="24" y="41" width="4" height="4" fill="#354762"/><rect x="24" y="42" width="4" height="4" fill="#354762"/><rect x="24" y="42" width="4" height="4" fill="#354762"/><rect x="24" y="43" width="4" height="4" fill="#354762"/><rect x="24" y="44" width="4" height="4" fill="#354762"/><rect x="25" y="45" width="4" height="4" fill="#354762"/><rect x="25" y="46" width="4" height="4" fill="#354762"/><rect x="25" y="49" width="7" height="3" fill="#202b3d"/><rect x="27" y="49" width="4" height="1" fill="#4c6180"/><g transform="translate(0 1)"><rect x="17" y="5" width="11" height="2" fill="#202b3d"/><rect x="15" y="7" width="15" height="6" fill="#202b3d"/><rect x="16" y="11" width="14" height="7" fill="#e7b998"/><rect x="29" y="13" width="3" height="3" fill="#e7b998"/><rect x="18" y="18" width="10" height="2" fill="#e7b998"/><rect x="20" y="20" width="5" height="3" fill="#cf9778"/><rect x="15" y="11" width="5" height="5" fill="#202b3d"/><rect x="19" y="14" width="3" height="3" fill="#cf9778"/><rect x="28" y="11" width="2" height="2" fill="#202b3d"/><rect x="27" y="17" width="3" height="1" fill="#cf9778"/><rect x="18" y="7" width="8" height="1" fill="#4c6180"/><rect x="17" y="22" width="11" height="3" fill="#354762"/><rect x="15" y="25" width="13" height="10" fill="#354762"/><rect x="17" y="35" width="11" height="2" fill="#202b3d"/><rect x="24" y="22" width="4" height="4" fill="#f7f5ee"/><rect x="25" y="26" width="2" height="5" fill="#202b3d"/><rect x="16" y="25" width="3" height="9" fill="#4c6180"/><rect x="27" y="30" width="1" height="2" fill="#dfbc80"/><rect x="22" y="25" width="4" height="4" fill="#4c6180"/><rect x="22" y="26" width="4" height="4" fill="#4c6180"/><rect x="23" y="27" width="4" height="4" fill="#4c6180"/><rect x="23" y="28" width="4" height="4" fill="#4c6180"/><rect x="24" y="29" width="4" height="4" fill="#4c6180"/><rect x="24" y="30" width="4" height="4" fill="#4c6180"/><rect x="24" y="30" width="4" height="4" fill="#354762"/><rect x="25" y="31" width="4" height="4" fill="#354762"/><rect x="26" y="32" width="4" height="4" fill="#354762"/><rect x="27" y="32" width="4" height="4" fill="#354762"/><rect x="28" y="33" width="4" height="4" fill="#354762"/><rect x="29" y="34" width="3" height="3" fill="#e7b998"/><rect x="29" y="36" width="7" height="2" fill="#694a35"/><rect x="28" y="37" width="2" height="3" fill="#694a35"/><rect x="35" y="37" width="2" height="3" fill="#694a35"/><rect x="25" y="39" width="15" height="10" fill="#694a35"/><rect x="26" y="40" width="13" height="8" fill="#986b45"/><rect x="26" y="40" width="13" height="2" fill="#b1875b"/><rect x="32" y="43" width="2" height="2" fill="#dfbc80"/><rect x="26" y="47" width="13" height="1" fill="#805739"/></g></g>
<g transform="translate(288 0)"><rect x="10" y="53" width="30" height="1" fill="#e3e7ed"/><rect x="14" y="52" width="22" height="1" fill="#e3e7ed"/><rect x="19" y="35" width="4" height="4" fill="#202b3d"/><rect x="20" y="36" width="4" height="4" fill="#202b3d"/><rect x="20" y="37" width="4" height="4" fill="#202b3d"/><rect x="20" y="38" width="4" height="4" fill="#202b3d"/><rect x="21" y="39" width="4" height="4" fill="#202b3d"/><rect x="22" y="40" width="4" height="4" fill="#202b3d"/><rect x="22" y="41" width="4" height="4" fill="#202b3d"/><rect x="22" y="41" width="4" height="4" fill="#202b3d"/><rect x="23" y="42" width="4" height="4" fill="#202b3d"/><rect x="23" y="43" width="4" height="4" fill="#202b3d"/><rect x="24" y="44" width="4" height="4" fill="#202b3d"/><rect x="24" y="47" width="7" height="3" fill="#202b3d"/><rect x="23" y="35" width="4" height="4" fill="#354762"/><rect x="23" y="36" width="4" height="4" fill="#354762"/><rect x="22" y="37" width="4" height="4" fill="#354762"/><rect x="22" y="38" width="4" height="4" fill="#354762"/><rect x="21" y="39" width="4" height="4" fill="#354762"/><rect x="21" y="40" width="4" height="4" fill="#354762"/><rect x="20" y="41" width="4" height="4" fill="#354762"/><rect x="20" y="42" width="4" height="4" fill="#354762"/><rect x="20" y="42" width="4" height="4" fill="#354762"/><rect x="19" y="43" width="4" height="4" fill="#354762"/><rect x="18" y="44" width="4" height="4" fill="#354762"/><rect x="18" y="47" width="7" height="3" fill="#202b3d"/><rect x="20" y="47" width="4" height="1" fill="#4c6180"/><g transform="translate(0 1)"><rect x="17" y="5" width="11" height="2" fill="#202b3d"/><rect x="15" y="7" width="15" height="6" fill="#202b3d"/><rect x="16" y="11" width="14" height="7" fill="#e7b998"/><rect x="29" y="13" width="3" height="3" fill="#e7b998"/><rect x="18" y="18" width="10" height="2" fill="#e7b998"/><rect x="20" y="20" width="5" height="3" fill="#cf9778"/><rect x="15" y="11" width="5" height="5" fill="#202b3d"/><rect x="19" y="14" width="3" height="3" fill="#cf9778"/><rect x="28" y="11" width="2" height="2" fill="#202b3d"/><rect x="27" y="17" width="3" height="1" fill="#cf9778"/><rect x="18" y="7" width="8" height="1" fill="#4c6180"/><rect x="17" y="22" width="11" height="3" fill="#354762"/><rect x="15" y="25" width="13" height="10" fill="#354762"/><rect x="17" y="35" width="11" height="2" fill="#202b3d"/><rect x="24" y="22" width="4" height="4" fill="#f7f5ee"/><rect x="25" y="26" width="2" height="5" fill="#202b3d"/><rect x="16" y="25" width="3" height="9" fill="#4c6180"/><rect x="27" y="30" width="1" height="2" fill="#dfbc80"/><rect x="22" y="25" width="4" height="4" fill="#4c6180"/><rect x="22" y="26" width="4" height="4" fill="#4c6180"/><rect x="22" y="27" width="4" height="4" fill="#4c6180"/><rect x="23" y="28" width="4" height="4" fill="#4c6180"/><rect x="23" y="29" width="4" height="4" fill="#4c6180"/><rect x="23" y="30" width="4" height="4" fill="#4c6180"/><rect x="23" y="30" width="4" height="4" fill="#354762"/><rect x="24" y="31" width="4" height="4" fill="#354762"/><rect x="25" y="32" width="4" height="4" fill="#354762"/><rect x="26" y="32" width="4" height="4" fill="#354762"/><rect x="27" y="33" width="4" height="4" fill="#354762"/><rect x="28" y="34" width="3" height="3" fill="#e7b998"/><rect x="28" y="36" width="7" height="2" fill="#694a35"/><rect x="27" y="37" width="2" height="3" fill="#694a35"/><rect x="34" y="37" width="2" height="3" fill="#694a35"/><rect x="24" y="39" width="15" height="10" fill="#694a35"/><rect x="25" y="40" width="13" height="8" fill="#986b45"/><rect x="25" y="40" width="13" height="2" fill="#b1875b"/><rect x="31" y="43" width="2" height="2" fill="#dfbc80"/><rect x="25" y="47" width="13" height="1" fill="#805739"/></g></g>
<g transform="translate(336 0)"><rect x="10" y="53" width="30" height="1" fill="#e3e7ed"/><rect x="14" y="52" width="22" height="1" fill="#e3e7ed"/><rect x="19" y="35" width="4" height="4" fill="#202b3d"/><rect x="20" y="36" width="4" height="4" fill="#202b3d"/><rect x="21" y="37" width="4" height="4" fill="#202b3d"/><rect x="22" y="38" width="4" height="4" fill="#202b3d"/><rect x="22" y="39" width="4" height="4" fill="#202b3d"/><rect x="23" y="40" width="4" height="4" fill="#202b3d"/><rect x="24" y="41" width="4" height="4" fill="#202b3d"/><rect x="24" y="41" width="4" height="4" fill="#202b3d"/><rect x="25" y="42" width="4" height="4" fill="#202b3d"/><rect x="26" y="43" width="4" height="4" fill="#202b3d"/><rect x="27" y="44" width="4" height="4" fill="#202b3d"/><rect x="28" y="45" width="4" height="4" fill="#202b3d"/><rect x="28" y="48" width="7" height="3" fill="#202b3d"/><rect x="23" y="35" width="4" height="4" fill="#354762"/><rect x="22" y="36" width="4" height="4" fill="#354762"/><rect x="22" y="37" width="4" height="4" fill="#354762"/><rect x="21" y="38" width="4" height="4" fill="#354762"/><rect x="20" y="39" width="4" height="4" fill="#354762"/><rect x="19" y="40" width="4" height="4" fill="#354762"/><rect x="19" y="41" width="4" height="4" fill="#354762"/><rect x="18" y="42" width="4" height="4" fill="#354762"/><rect x="18" y="42" width="4" height="4" fill="#354762"/><rect x="17" y="43" width="4" height="4" fill="#354762"/><rect x="16" y="44" width="4" height="4" fill="#354762"/><rect x="15" y="44" width="4" height="4" fill="#354762"/><rect x="14" y="45" width="4" height="4" fill="#354762"/><rect x="14" y="48" width="7" height="3" fill="#202b3d"/><rect x="16" y="48" width="4" height="1" fill="#4c6180"/><g transform="translate(0 0)"><rect x="17" y="5" width="11" height="2" fill="#202b3d"/><rect x="15" y="7" width="15" height="6" fill="#202b3d"/><rect x="16" y="11" width="14" height="7" fill="#e7b998"/><rect x="29" y="13" width="3" height="3" fill="#e7b998"/><rect x="18" y="18" width="10" height="2" fill="#e7b998"/><rect x="20" y="20" width="5" height="3" fill="#cf9778"/><rect x="15" y="11" width="5" height="5" fill="#202b3d"/><rect x="19" y="14" width="3" height="3" fill="#cf9778"/><rect x="28" y="11" width="2" height="2" fill="#202b3d"/><rect x="27" y="17" width="3" height="1" fill="#cf9778"/><rect x="18" y="7" width="8" height="1" fill="#4c6180"/><rect x="17" y="22" width="11" height="3" fill="#354762"/><rect x="15" y="25" width="13" height="10" fill="#354762"/><rect x="17" y="35" width="11" height="2" fill="#202b3d"/><rect x="24" y="22" width="4" height="4" fill="#f7f5ee"/><rect x="25" y="26" width="2" height="5" fill="#202b3d"/><rect x="16" y="25" width="3" height="9" fill="#4c6180"/><rect x="27" y="30" width="1" height="2" fill="#dfbc80"/><rect x="22" y="25" width="4" height="4" fill="#4c6180"/><rect x="22" y="26" width="4" height="4" fill="#4c6180"/><rect x="22" y="27" width="4" height="4" fill="#4c6180"/><rect x="23" y="28" width="4" height="4" fill="#4c6180"/><rect x="23" y="29" width="4" height="4" fill="#4c6180"/><rect x="23" y="30" width="4" height="4" fill="#4c6180"/><rect x="23" y="30" width="4" height="4" fill="#354762"/><rect x="24" y="31" width="4" height="4" fill="#354762"/><rect x="25" y="32" width="4" height="4" fill="#354762"/><rect x="26" y="32" width="4" height="4" fill="#354762"/><rect x="27" y="33" width="4" height="4" fill="#354762"/><rect x="28" y="34" width="3" height="3" fill="#e7b998"/><rect x="28" y="36" width="7" height="2" fill="#694a35"/><rect x="27" y="37" width="2" height="3" fill="#694a35"/><rect x="34" y="37" width="2" height="3" fill="#694a35"/><rect x="24" y="39" width="15" height="10" fill="#694a35"/><rect x="25" y="40" width="13" height="8" fill="#986b45"/><rect x="25" y="40" width="13" height="2" fill="#b1875b"/><rect x="31" y="43" width="2" height="2" fill="#dfbc80"/><rect x="25" y="47" width="13" height="1" fill="#805739"/></g></g>
</svg>
